<svg xmlns="http://www.w3.org/2000/svg" xmlns:xlink="http://www.w3.org/1999/xlink" height="30" viewBox="0 0 30 30" width="30"><linearGradient id="a" x1="81.763%" x2="14.868%" y1="30.23%" y2="30.23%"><stop offset="0" stop-color="#bbb"/><stop offset=".48476" stop-color="#f6f6f6"/><stop offset="1" stop-color="#bcbbbb"/></linearGradient><linearGradient id="b" x1="36.151%" x2="66.24%" y1="11.706%" y2="77.117%"><stop offset="0" stop-color="#cfae5f"/><stop offset=".57962" stop-color="#ffea97"/><stop offset="1" stop-color="#d0b160"/></linearGradient><radialGradient id="c" cx="50%" cy="20.148%" r="124.683%"><stop offset="0" stop-color="#c7982a"/><stop offset=".15497" stop-color="#c7982a"/><stop offset=".46056" stop-color="#ffd64d"/><stop offset="1" stop-color="#c4a538"/></radialGradient><g fill="none" fill-rule="evenodd"><g transform="translate(5.679 1)"><g fill="url(#a)"><path d="m18.6425895 0c-3.2086934 5.87085338-4.8130401 9.93285372-4.8130401 12.186001 0 .8316548.0692513 1.6219966.1911404 2.3710255-2.7547531 1.1092208-4.69939504 3.8072166-4.69939504 6.9594078 0 1.0110152.20004599 1.9753071.56271487 2.8554527l-9.88400963.0000654c3.20869343-5.3894661 4.81304014-9.4315656 4.81304014-12.1262987 0-2.72125636-1.60434671-6.80314093-4.81304014-12.2456537 6.33771196 1.04489352 11.4391204 1.04489352 18.6425895 0z"/><path d="m18.6425895 0c-3.2086934 5.87085338-4.8130401 9.93285372-4.8130401 12.186001 0 .8321537.0693344 1.6229448.1913598 2.3723733-.4367324.1742296-.8531658.3900762-1.2447074.6413312-.2091094-.9500166-.3171018-1.917248-.3171018-2.9540518 0-4.08188455 1.8618229-7.68410909 4.2487596-11.98412535.6288938-.07835695 1.2729409-.16553306 1.9347299-.26152835z"/><path d="m0 0c.86619877.1428095 1.70930376.2661007 2.53783788.36987358 2.78222648 6.41182004 3.368397 10.38962612 3.29461779 11.92532292.14709546 2.2264993-1.63179843 6.4911253-2.95643213 9.4394479-.46657676.1098576-1.793785.7775945-1.32756875-.0893569 2.17639024-4.0471021 3.26458535-7.1803133 3.26458535-9.3996338 0-2.72125636-1.60434671-6.80314093-4.81304014-12.2456537z"/></g><path d="m9.58310483 4.05843785c2.64704037 3.84018292 4.36129537 6.33065935 5.14276517 7.47142915-.6442021 1.2803422-1.1067394 2.3954719-1.4331878 3.3679975-2.31394 1.235288-3.90328099 3.6480453-3.96925274 6.4378472l-3.68760823-.0000261c1.19993687-2.0632123.62727375-5.3318185-1.71798936-9.8058186.69172922-.967913 2.58015354-3.45838935 5.66527296-7.47142915z" fill="url(#b)"/><circle cx="9.321" cy="12.186" fill="url(#c)" r="3.685"/><path d="m9.32129476 15.8714497c2.03543084 0 3.68547354-1.6500427 3.68547354-3.6854735-.7394407 3.0297282-5.84034604 3.954553-7.37094707 0 0 2.0354308 1.65004271 3.6854735 3.68547353 3.6854735z" fill="#000" fill-opacity=".1"/></g><g transform="translate(15 15.016)"><rect height="15" rx="7.5" width="15"/><path d="m10.5469334 9.33278617c-.5305205-.64414067-1.04387367-1.2453792-1.54005943-1.80371559.15884118-.6485601.49881921-2.78442523.53235824-3.28729852.75788799-.32324493 1.38997889-.52666064 1.76736809-.64974667.1569955.16019072 1.3351186 1.43030195 1.6828228 2.25645219.038524.79096898-.0205505 1.45727182-.2611394 2.26092583-.5938723.40980952-1.3028871.81057484-2.1813503 1.22338276zm-1.35487214 3.19360743c.02958836.0603626.05975652.1211372.09050446.1823236-1.67189192.7067367-3.49524829.6811914-5.08236312.048535-.11216842-.108278-.25870014-.2827882-.37326928-.5496712.50539736-.1077017 2.03736382-.6186854 2.36244817-.7728012.78911539.2231682 1.62426587.345362 2.50545145.3665815.1286677.1704088.29441047.4120863.49722832.7250323zm1.47699344-3.00827877c.6089389-.26308622 1.2717518-.62069548 1.9885138-1.07280697.0881188.24036782.1058536.66956029.1056562.9236771-.963675 2.11320794-2.7449604 3.03834654-3.26732926 3.24520404-.18018936-.3109028-.3515981-.5709787-.57191252-.8673562.65295138-.6174668 1.23464198-1.3603728 1.74507178-2.22871797zm-6.94765358 2.46932317c-.7309459-.3948764-1.83592984-1.2751482-2.24821569-1.8209474-.07322646-.20187267-.26214348-1.85515498-.19123266-2.6234533.5325628-.25034001 1.22764733-.52979635 2.0852536-.83836903.10191537.26623524 2.37644005 2.03163513 2.55220957 2.13593124l.07047513 2.43047939c-1.02755028.3983149-1.7837136.6371012-2.26848995.7163591zm7.66706588-8.61945607c-.2326362-.64929979-.5702466-1.27213167-1.0128314-1.86849562.0886695-.07567728.1726286-.14576125.2539477-.21176988 1.4050321 1.00824583 2.4023847 2.64645553 2.6057108 4.14779513-.068833.05636477-.1168141.09377745-.1651689.1274555-.356462-.64680327-1.4300013-2.00046575-1.6816582-2.19498513zm-2.60046437 4.14472059c-.77390044.34796083-1.70116429.7237432-2.78179156 1.12734711-.0509587-.03299309-.10282073-.0671845-.15604534-.10283324-.74646488-.49996664-1.52980267-1.17395308-2.43312042-2.11917694.07436955-.9305977.2142629-1.78720493.41968007-2.56982169.29188664-.23307314 2.20719293-1.17756607 3.12559606-1.33220231.84062562.52640687 1.62648188 1.11280748 2.35756876 1.75920183-.00514202.47646313-.34476316 2.58099493-.53188757 3.23748524zm-8.26579316-2.09012452c.07941361.80825585.3659703 1.52216588.54292869 1.90680732-.0830016 1.13200264.16680644 2.91858228.18545567 2.94348718-.04171898.0114091-.07977679.0180265-.11796578.025337-.5248978-.77151119-1.42186175-2.40604387-1.04107586-4.64283429.13857013-.07717515.28202323-.15473162.43065728-.23279721zm-.37785287-.06215645c.3002187-1.53565106 1.14370298-2.95341964 2.43243713-3.9535663-.05435746.11074794-.47582963 1.1065217-.60759368 1.55757333-.70837337.77952624-1.1876327 1.50962931-1.437778 2.19030921-.13292937.06891784-.2618859.13745075-.38706545.20568376zm3.63326248-1.72311833c-.34468022-.2436172-1.14533028-.63280387-1.52772803-.74772394.09724202-.41307191.53082252-1.48868395.66437685-1.66903082-.03732674-.0357793 1.67292885-.95523508 2.45171536-1.03249832.21928409.0020074 1.62228112.38154907 2.15513185.63688756-.16914604.36552009-.41678607.86873213-.66421837 1.49392551-.89589831.13995761-2.77675502 1.15824522-3.07927766 1.31844001zm6.43034052-2.27831555c-.53401953-.28766068-1.72065523-.59996223-2.33257457-.62214292-.55226897-.28280209-1.90627895-.66328575-2.07377378-.67916896 1.63906522-.21718641 3.29727114.18531145 4.64483005 1.10102175-.0764587.06273312-.1554232.12910941-.2384817.20029013z" fill="#eaeaec" transform="translate(.765 .882)"/></g><g transform="translate(5 21)"><path d="m10.1501485 0c-.034052.16768278-.0625097.3373974-.0851696.50894055-.0026211.03557563-.0070665.07056243-.0112701.1056236-.0240678.18802788-.0392889.37887703-.0472371.57160317-.0040658.1094126-.0064717.21972551-.0064717.33060035 0 2.45395429 1.1785485 4.63264384 3.0005068 6.00092994l-.0005068.4829002h-13v-8z" fill="#4e9438"/><path d="m6.51149456.53620828 3.60544664 2.30705996c.1206893.67625342.3320149 1.32111713.6209637 1.92157798l-4.22641034 2.70014112-5.44407617-3.46160203z" fill="#fedf00"/><path d="m4.66105987 3.35806132c1.53791978-.13324114 2.75164714.26289606 4.03646323 1.31569796l-.01509625-.01279489c-.28312447.93694845-1.15310398 1.6191785-2.18242685 1.6191785-1.25895798 0-2.27954508-1.0205871-2.27954508-2.27954508 0-.20875579.0280611-.41095756.08061707-.60303908l.08514449-.01051489zm1.83894013-1.63700859c1.25895798 0 2.27954508 1.02058709 2.27954508 2.27954508 0 .11435535-.00842055.22674397-.02467543.33657965l-.10395198-.0828132c-1.33925887-1.02185503-2.64657986-1.36971894-4.30152169-1.16505227l.06376904-.00744043c.35332814-.80140038 1.15475197-1.36081883 2.08683498-1.36081883z" fill="#002776" opacity=".925"/><path d="m4.41790528 3.08113265c1.62262257-.1867301 2.91228747.16551798 4.23301239 1.17323161.04462054.03531.07808595.0617925.10039622.0794475-.01967594.11253342-.06496415.33080319-.07054884.32624964-1.27862057-1.04253941-2.48847344-1.43466179-4.01970518-1.30200008l-.27484339.02898252-.08813517.01089967c.06470229-.2094603.10464362-.31506392.11982397-.31681086z" fill="#fff" fill-rule="nonzero"/></g></g></svg>